/vscmnt/brussel_pixiu_data/_data_brussel/112/vsc11236/PredSimResults/SUBJ07opt3D/expIG/worker_10.mot
version=1
nRows=11
nColumns=50
inDegrees=yes
endheader
                time	         pelvis_tilt	         pelvis_list	     pelvis_rotation	           pelvis_tx	           pelvis_ty	           pelvis_tz	       hip_flexion_r	     hip_adduction_r	      hip_rotation_r	        knee_angle_r	       ankle_angle_r	         mtp_angle_r	       hip_flexion_l	     hip_adduction_l	      hip_rotation_l	        knee_angle_l	       ankle_angle_l	         mtp_angle_l	    lumbar_extension	      lumbar_bending	     lumbar_rotation	 ercspn_r/activation	 intobl_r/activation	 extobl_r/activation	    abd_r/activation	    add_r/activation	hamstrings_r/activation	bifemsh_r/activation	glut_max_r/activation	iliopsoas_r/activation	rect_fem_r/activation	  vasti_r/activation	gastroc_r/activation	 soleus_r/activation	tib_ant_r/activation	 ercspn_l/activation	 intobl_l/activation	 extobl_l/activation	    abd_l/activation	    add_l/activation	hamstrings_l/activation	bifemsh_l/activation	glut_max_l/activation	iliopsoas_l/activation	rect_fem_l/activation	  vasti_l/activation	gastroc_l/activation	 soleus_l/activation	tib_ant_l/activation	
          1.46460802	         -5.70578590	          1.29542550	         -8.43150258	          2.19691203	          0.84373459	          0.00986360	        -12.53045316	         -1.25147600	          3.08438731	        -13.63340968	          5.76885241	         33.51534516	         32.62956031	         -1.73075890	         -4.44956344	         -6.17193198	          4.42176083	          0.30376211	        -13.68572319	         -0.29547567	          2.59339279	          0.09696331	          0.00999999	          0.00999999	          0.01934307	          0.04042203	          0.01374593	          0.01162733	          0.01655026	          0.01530637	          0.13896025	          0.02873180	          0.26251337	          0.24615754	          0.01176483	          0.13623351	          0.15088561	          0.00999999	          0.02433304	          0.12425850	          0.13697003	          0.21739498	          0.03723012	          0.06106116	          0.00999999	          0.00999999	          0.01571958	          0.00999999	          0.49000192	
          1.47437207	         -5.66711044	          1.23184345	         -8.49106030	          2.21451986	          0.84194903	          0.00943652	        -13.86733878	         -1.40030765	          2.83117575	        -13.21734107	          4.20702252	         34.67445185	         32.59286539	         -1.54685350	         -4.34829560	         -7.98334904	          3.98002514	          0.30802260	        -13.45648719	         -0.51321322	          2.80438982	          0.08746573	          0.00999999	          0.00999999	          0.01663585	          0.09255719	          0.02298262	          0.00999999	          0.01423392	          0.24200639	          0.11951162	          0.02471054	          0.22577246	          0.22018752	          0.01011824	          0.11716651	          0.12976792	          0.00999999	          0.02092743	          0.17421910	          0.11779995	          0.18696876	          0.11326299	          0.05251515	          0.00999999	          0.00999999	          0.01351950	          0.01351950	          0.49005593	
          1.48413613	         -5.62536202	          1.15997605	         -8.50651112	          2.23214630	          0.84017307	          0.00901717	        -14.97467188	         -1.51001008	          2.54539011	        -13.25131477	          2.72340959	         35.60602756	         32.51109121	         -1.42698098	         -4.11649208	        -10.04435493	          3.53363515	          0.27742502	        -13.24686038	         -0.74284521	          2.99743819	          0.14773992	          0.00999999	          0.00999999	          0.01430753	          0.08665423	          0.01976601	          0.07400701	          0.01224176	          0.22396149	          0.10278498	          0.02125210	          0.19417375	          0.19538322	          0.00999999	          0.11651976	          0.11160584	          0.00999999	          0.08653250	          0.18110579	          0.10131287	          0.16080094	          0.16862361	          0.04516522	          0.00999999	          0.00999999	          0.01162733	          0.01162733	          0.59445565	
          1.49390018	         -5.58420480	          1.07628751	         -8.47414655	          2.24962198	          0.83859224	          0.00853578	        -15.75485720	         -1.57894602	          2.23086679	        -13.87878530	          1.33616083	         36.23116770	         32.38174735	         -1.32050359	         -3.89997216	        -11.97717045	          3.00378296	          0.25884749	        -13.07439326	         -0.96604698	          3.16898366	          0.16926007	          0.00999999	          0.00999999	          0.01230507	          0.09312187	          0.01869527	          0.06364912	          0.01052843	          0.31356243	          0.08839938	          0.01827769	          0.16699754	          0.16803773	          0.00999999	          0.14083226	          0.09598568	          0.00999999	          0.15424966	          0.21172385	          0.08713330	          0.13829553	          0.21232494	          0.03884398	          0.00999999	          0.00999999	          0.00999999	          0.00999999	          0.67167748	
          1.50366423	         -5.54375697	          0.98562057	         -8.39870802	          2.26678076	          0.83738540	          0.00799133	        -16.12640607	         -1.61267031	          1.90347548	        -15.21410587	          0.04953986	         36.46509540	         32.28124831	         -1.21190436	         -3.70721111	        -13.93682376	          2.59093973	          0.22720468	        -12.95513764	         -1.18743767	          3.31610956	          0.22075078	          0.00999999	          0.00999999	          0.01058287	          0.09906519	          0.02023510	          0.05474090	          0.00999999	          0.36013584	          0.07602716	          0.01571958	          0.14362486	          0.14451947	          0.00999999	          0.16473382	          0.08255169	          0.00999999	          0.21266256	          0.23965133	          0.07493828	          0.11893993	          0.26553670	          0.03340744	          0.00999999	          0.00999999	          0.00999999	          0.00999999	          0.66962472	
          1.51342829	         -5.50338980	          0.89510492	         -8.28443357	          2.28351165	          0.83672066	          0.00740102	        -16.02809252	         -1.62123264	          1.57648282	        -17.33360159	         -1.18919249	         36.24990958	         32.25754544	         -1.10002130	         -3.53555403	        -16.04704757	          2.56640720	          0.19506655	        -12.89438636	         -1.41460833	          3.43619397	          0.28224437	          0.00999999	          0.00999999	          0.00999999	          0.11773384	          0.02090107	          0.06625990	          0.00999999	          0.30973187	          0.06538653	          0.01351950	          0.12352337	          0.12429278	          0.00999999	          0.19038794	          0.07099791	          0.00999999	          0.24856091	          0.26240903	          0.06445005	          0.10229331	          0.30111453	          0.02873180	          0.00999999	          0.03190283	          0.00999999	          0.00999999	          0.62717327	
          1.52319234	         -5.46293681	          0.80362326	         -8.13090604	          2.29980993	          0.83670572	          0.00678090	        -15.44863981	         -1.60595046	          1.25482010	        -20.20701342	         -2.54140644	         35.59979261	         32.26548002	         -0.98345893	         -3.38131842	        -18.21442851	          2.90201038	          0.17015497	        -12.88120298	         -1.64263864	          3.52654264	          0.31140441	          0.00999999	          0.00999999	          0.00999999	          0.14121438	          0.02185271	          0.07789097	          0.00999999	          0.26638234	          0.05623515	          0.01162733	          0.10623526	          0.10689698	          0.00999999	          0.20361355	          0.06106116	          0.00999999	          0.25796362	          0.27906123	          0.05542974	          0.08797652	          0.31222104	          0.02471054	          0.00999999	          0.05088290	          0.00999999	          0.00999999	          0.53939521	
          1.53295639	         -5.42337930	          0.70802788	         -7.93891131	          2.31574308	          0.83731857	          0.00614264	        -14.41470831	         -1.56777236	          0.95058210	        -23.73265543	         -4.16769866	         34.50687360	         32.21762703	         -0.85816101	         -3.22693962	        -20.27421541	          3.53625730	          0.16386671	        -12.89619682	         -1.86324086	          3.58753823	          0.33856106	          0.00999999	          0.00999999	          0.00999999	          0.15424941	          0.01977939	          0.06801691	          0.00999999	          0.22909994	          0.04836458	          0.00999999	          0.09136676	          0.09193587	          0.00999999	          0.17511616	          0.05251515	          0.00999999	          0.25336724	          0.28371686	          0.04767189	          0.07566348	          0.30234731	          0.02125210	          0.00999999	          0.08923072	          0.00999999	          0.00999999	          0.46390241	
          1.54272045	         -5.38785834	          0.60771467	         -7.70965996	          2.33135929	          0.83850081	          0.00547367	        -12.97001006	         -1.50909414	          0.69142420	        -27.76008016	         -6.19955861	         32.91639242	         32.02174050	         -0.71444268	         -3.04118531	        -22.05869246	          4.46710279	          0.21186705	        -12.92633942	         -2.06602707	          3.62451608	          0.33684229	          0.00999999	          0.00999999	          0.00999999	          0.15301724	          0.01701111	          0.05849738	          0.00999999	          0.19703552	          0.04159556	          0.00999999	          0.07857923	          0.07906869	          0.02037024	          0.15060721	          0.04516522	          0.00999999	          0.26552296	          0.27658402	          0.04219136	          0.06507375	          0.26688644	          0.01827769	          0.00999999	          0.12341847	          0.00999999	          0.00999999	          0.39897545	
          1.55248450	         -5.36010978	          0.50884852	         -7.44705586	          2.34665637	          0.84016061	          0.00477592	        -11.17849224	         -1.42793174	          0.51837658	        -32.13533301	         -8.39994861	         30.41962356	         31.63505293	         -0.54083915	         -2.78937581	        -23.45749341	          5.50871251	          0.32687904	        -12.96749634	         -2.25228041	          3.64017317	          0.32595716	          0.04360810	          0.00999999	          0.01027944	          0.13160122	          0.01463026	          0.05031019	          0.01128835	          0.16945878	          0.10688432	          0.00999999	          0.06758142	          0.06800237	          0.18371881	          0.12952849	          0.03884398	          0.00999999	          0.28488259	          0.25424221	          0.06265455	          0.05596615	          0.22953349	          0.01571958	          0.00999999	          0.14363823	          0.00999999	          0.00999999	          0.34313555	
          1.56224855	         -5.34243088	          0.42162421	         -7.15885126	          2.36161041	          0.84214085	          0.00408078	         -9.15536757	         -1.29887835	          0.46589087	        -36.67509560	         -9.84244393	         26.97301648	         31.06860562	         -0.33736181	         -2.48362411	        -24.45755895	          6.49620950	          0.50021473	        -13.02025232	         -2.43069125	          3.63049713	          0.32185573	          0.05268185	          0.00999999	          0.01265596	          0.11318255	          0.01258264	          0.04326887	          0.01162733	          0.14574163	          0.09192498	          0.00999999	          0.05812285	          0.05848488	          0.19146801	          0.11139991	          0.03340744	          0.00999999	          0.27550338	          0.21865892	          0.06580137	          0.04813322	          0.19740839	          0.01351950	          0.00999999	          0.18609720	          0.00999999	          0.00999999	          0.29511091	
